<?xml version="1.0" encoding="UTF-8" standalone="no"?>
<!-- Created with Inkscape (http://www.inkscape.org/) -->

<svg
   width="52mm"
   height="52mm"
   viewBox="0 0 52 52"
   version="1.1"
   id="svg1"
   xml:space="preserve"
   inkscape:version="1.4 (e7c3feb100, 2024-10-09)"
   sodipodi:docname="logo_square_pride.svg"
   xmlns:inkscape="http://www.inkscape.org/namespaces/inkscape"
   xmlns:sodipodi="http://sodipodi.sourceforge.net/DTD/sodipodi-0.dtd"
   xmlns="http://www.w3.org/2000/svg"
   xmlns:svg="http://www.w3.org/2000/svg"><sodipodi:namedview
     id="namedview1"
     pagecolor="#505050"
     bordercolor="#eeeeee"
     borderopacity="1"
     inkscape:showpageshadow="0"
     inkscape:pageopacity="0"
     inkscape:pagecheckerboard="0"
     inkscape:deskcolor="#d1d1d1"
     inkscape:document-units="mm"
     inkscape:zoom="2.4502529"
     inkscape:cx="27.140056"
     inkscape:cy="93.459741"
     inkscape:window-width="1362"
     inkscape:window-height="721"
     inkscape:window-x="0"
     inkscape:window-y="22"
     inkscape:window-maximized="1"
     inkscape:current-layer="layer1"
     showgrid="false" /><defs
     id="defs1"><clipPath
   clipPathUnits="userSpaceOnUse"
   id="clipPath104"><path
     d="m 0,841.89 595.28,0 L 595.28,0 0,0 0,841.89 z"
     id="path106" /></clipPath><clipPath
   clipPathUnits="userSpaceOnUse"
   id="clipPath21"><path
     d="m -395.7266,128.8519 h 595.28 v -841.89 h -595.28 z"
     id="path23"
     style="stroke-width:1" /></clipPath><clipPath
   clipPathUnits="userSpaceOnUse"
   id="clipPath23"><path
     d="m -197.9116,143.0062 h 595.28 v -841.89 h -595.28 z"
     id="path24"
     style="stroke-width:1" /></clipPath><clipPath
   clipPathUnits="userSpaceOnUse"
   id="clipPath24"><path
     d="m -150.5107,173.2757 h 595.28 v -841.89 h -595.28 z"
     id="path25"
     style="stroke-width:1" /></clipPath><clipPath
   clipPathUnits="userSpaceOnUse"
   id="clipPath25"><path
     d="m -503.2891,169.2045 h 595.28 v -841.89 h -595.28 z"
     id="path27"
     style="stroke-width:1" /></clipPath><clipPath
   clipPathUnits="userSpaceOnUse"
   id="clipPath27"><path
     d="m -414.3066,143.0062 h 595.28 v -841.89 h -595.28 z"
     id="path28"
     style="stroke-width:1" /></clipPath><clipPath
   clipPathUnits="userSpaceOnUse"
   id="clipPath28"><path
     d="m -265.1709,99.6429 h 595.28 v -841.89 h -595.28 z"
     id="path29"
     style="stroke-width:1" /></clipPath><clipPath
   clipPathUnits="userSpaceOnUse"
   id="clipPath29"><path
     d="m -171.6055,152.6722 h 595.28 v -841.89 h -595.28 z"
     id="path31"
     style="stroke-width:1" /></clipPath><clipPath
   clipPathUnits="userSpaceOnUse"
   id="clipPath31"><path
     d="m -287.7144,172.1195 h 595.28 v -841.89 h -595.28 z"
     id="path32"
     style="stroke-width:1" /></clipPath><clipPath
   clipPathUnits="userSpaceOnUse"
   id="clipPath32"><path
     d="m -314.9629,102.0638 h 595.28 v -841.89 h -595.28 z"
     id="path33"
     style="stroke-width:1" /></clipPath><clipPath
   clipPathUnits="userSpaceOnUse"
   id="clipPath33"><path
     d="m -503.1602,100.784 h 595.28 v -841.89 h -595.28 z"
     id="path35"
     style="stroke-width:1" /></clipPath><clipPath
   clipPathUnits="userSpaceOnUse"
   id="clipPath35"><path
     d="m -393.375,174.6097 h 595.28 v -841.89 h -595.28 z"
     id="path36"
     style="stroke-width:1" /></clipPath><clipPath
   clipPathUnits="userSpaceOnUse"
   id="clipPath36"><path
     d="m -492.7129,116.7191 h 595.28 v -841.89 h -595.28 z"
     id="path37"
     style="stroke-width:1" /></clipPath><clipPath
   clipPathUnits="userSpaceOnUse"
   id="clipPath37"><path
     d="m -360.1016,115.91 h 595.28 v -841.89 h -595.28 z"
     id="path39"
     style="stroke-width:1" /></clipPath><clipPath
   clipPathUnits="userSpaceOnUse"
   id="clipPath39"><path
     d="m -276.3911,116.7191 h 595.28 v -841.89 h -595.28 z"
     id="path40"
     style="stroke-width:1" /></clipPath>

<clipPath
   clipPathUnits="userSpaceOnUse"
   id="clipPath1"><g
     id="g4"
     inkscape:label="logo"
     style="fill:#ffffff;stroke-width:0.999999"
     transform="translate(1.774033e-7,-1.7740329e-5)"><path
       d="m 122.6187,671.0342 -46.895,-0.054 c -0.582,-0.025 -1.908,-0.024 -2.63,0.57 -0.722,0.593 -0.813,0.743 -1.118,1.119 -0.305,0.375 -3.101,4.463 -3.101,4.463 -0.592,1.019 -0.999,1.956 -0.983,2.69 v 0.231 25.383 6.535 0.13 2.442 c 0.856,0.233 1.488,1.01 1.488,1.937 0,1.115 -0.901,2.019 -2.016,2.019 -1.115,0 -2.017,-0.904 -2.017,-2.019 0,-0.925 0.628,-1.698 1.48,-1.935 v -2.444 -0.13 -6.535 -25.383 -0.231 c 0.017,-1.153 0.544,-2.385 1.353,-3.494 0.143,-0.222 0.285,-0.442 0.427,-0.662 0.642,-0.984 1.174,-1.665 1.821,-2.644 0.662,-0.999 1.324,-2.008 2.432,-2.597 0.829,-0.44 1.929,-0.451 2.881,-0.457 l 46.888,-0.004 c 0,0 0.87,-0.035 0.87,0.543 0,0.576 -0.88,0.527 -0.88,0.527"
       style="fill:#ffffff;fill-opacity:1;fill-rule:nonzero;stroke:none;stroke-width:0.999999"
       id="path2" /><path
       d="m 130.894,725.9258 c -0.318,-0.872 -1.153,-1.418 -2.037,-1.318 -0.058,0.005 -0.35,0.075 -0.421,0.101 -0.115,0.042 -0.221,0.096 -0.323,0.156 l -14.901,-15.583 -1.76,-1.839 c 0.17,-0.352 0.234,-0.744 0.181,-1.124 -0.048,-0.401 -0.217,-0.789 -0.517,-1.104 -0.744,-0.777 -1.977,-0.805 -2.756,-0.059 -0.779,0.744 -0.803,1.978 -0.06,2.756 0.638,0.668 1.603,0.849 2.366,0.395 l 1.757,1.8 14.884,15.568 c -0.255,0.476 -0.323,1.049 -0.124,1.597 0.374,1.026 1.506,1.557 2.532,1.183 0.016,-0.005 0.029,-0.015 0.045,-0.021 0.991,-0.391 1.501,-1.501 1.134,-2.508 m -7.2,-41.46 c -0.125,-0.119 -0.286,-0.179 -0.446,-0.179 -0.172,0 -0.344,0.068 -0.472,0.203 l -19.847,20.942 -19.848,-20.942 c -0.127,-0.135 -0.299,-0.203 -0.471,-0.203 -0.161,0 -0.321,0.06 -0.447,0.179 -0.261,0.246 -0.271,0.658 -0.024,0.918 l 19.895,20.993 -19.895,20.991 c -0.247,0.26 -0.236,0.671 0.025,0.918 0.259,0.248 0.669,0.238 0.918,-0.025 l 19.847,-20.94 19.846,20.94 c 0.248,0.263 0.659,0.273 0.919,0.025 0.261,-0.247 0.272,-0.658 0.024,-0.918 l -19.894,-20.991 19.895,-20.993 c 0.247,-0.26 0.236,-0.672 -0.025,-0.918 m -44.636,2.539 c 10e-4,-0.01 0.004,-0.021 0.005,-0.033 0.009,-0.111 0.002,-0.225 -0.009,-0.338 -0.002,-0.024 0,-0.048 -0.004,-0.072 -0.017,-0.135 -0.05,-0.27 -0.098,-0.403 -0.374,-1.025 -1.507,-1.556 -2.532,-1.183 -1.024,0.373 -1.552,1.507 -1.18,2.53 0.151,0.412 0.428,0.739 0.768,0.966 0.117,0.077 0.244,0.141 0.375,0.192 0.021,0.008 0.042,0.015 0.063,0.023 0.112,0.039 0.226,0.067 0.343,0.087 0.034,0.005 0.068,0.011 0.103,0.014 0.108,0.013 0.218,0.012 0.328,0.006 0.039,-0.003 0.078,-10e-4 0.116,-0.006 0.145,-0.017 0.254,-0.049 0.398,-0.1 0.1,-0.037 0.209,-0.108 0.3,-0.158 l 14.709,15.381 1.748,1.827 c -0.351,0.704 -0.225,1.537 0.35,2.137 0.731,0.764 1.944,0.791 2.709,0.058 0.766,-0.732 0.79,-1.945 0.059,-2.709 -0.624,-0.654 -1.553,-0.805 -2.302,-0.365 l -1.716,-1.795 -14.721,-15.395 c 0.098,-0.209 0.166,-0.431 0.188,-0.664 m 51.065,42.575 c -0.121,0.044 -0.242,0.064 -0.363,0.092 v 1.312 c 0,1.923 -1.56,3.484 -3.484,3.484 H 79.488 c -1.924,0 -3.482,-1.561 -3.482,-3.484 v -41.29 c -0.831,-0.306 -1.531,-0.949 -1.858,-1.846 -0.587,-1.618 0.245,-3.407 1.864,-3.997 0.34,-0.123 0.687,-0.171 1.03,-0.174 0.493,-0.68 3.436,-4.738 3.77,-5.075 0.366,-0.368 1.078,-0.566 1.915,-0.572 h 43.549 c 1.924,0 3.484,1.561 3.484,3.483 v 42.106 c 0.992,0.23 1.852,0.936 2.226,1.965 0.588,1.618 -0.245,3.406 -1.863,3.996"
       style="fill:#ffffff;fill-opacity:1;fill-rule:nonzero;stroke:none;stroke-width:0.999999"
       id="path3" /><path
       d="m 69.9736,738.7568 c 0.366,1.001 1.473,1.522 2.475,1.156 1.003,-0.367 1.52,-1.473 1.155,-2.473 -0.365,-1.005 -1.474,-1.524 -2.476,-1.157 -1.002,0.364 -1.518,1.474 -1.154,2.474 m 62.381,-62.361 c -0.922,0 -1.691,-0.623 -1.931,-1.469 l -50.289,-0.053 c -0.582,-0.025 -2.117,0.013 -2.908,0.744 -0.579,0.535 -3.94,5.407 -3.94,5.407 -0.594,1.02 -1,1.957 -0.983,2.694 v 0.229 40.656 6.535 0.13 3.789 c 1.034,0.186 1.947,0.889 2.333,1.948 0.071,0.195 0.121,0.393 0.15,0.59 h 42.634 c 0.66,0.013 1.377,0.227 2.022,0.55 0.333,-0.286 0.762,-0.466 1.237,-0.466 1.054,0 1.906,0.855 1.906,1.908 0,1.051 -0.852,1.905 -1.906,1.905 -1.055,0 -1.909,-0.854 -1.909,-1.905 0,-0.185 0.035,-0.36 0.084,-0.53 -0.496,-0.228 -1.044,-0.392 -1.434,-0.384 l -42.674,0.005 c -0.212,0.993 -0.906,1.86 -1.932,2.234 -1.586,0.576 -3.333,-0.238 -3.908,-1.822 -0.577,-1.584 0.238,-3.334 1.823,-3.91 0.168,-0.061 0.338,-0.098 0.508,-0.128 v -3.784 -0.13 -6.535 -40.656 -0.229 c 0.016,-1.157 0.544,-2.388 1.353,-3.497 0.142,-0.222 0.284,-0.441 0.427,-0.661 0.642,-0.984 1.175,-1.665 1.821,-2.644 0.662,-1 1.323,-2.006 2.432,-2.597 0.829,-0.439 1.929,-0.452 2.88,-0.458 l 50.262,-0.003 c 0.23,-0.862 1.009,-1.498 1.942,-1.498 1.116,0 2.015,0.902 2.015,2.015 0,1.114 -0.899,2.02 -2.015,2.02"
       style="fill:#ffffff;fill-opacity:1;fill-rule:nonzero;stroke:none;stroke-width:0.999999"
       id="path4" /></g></clipPath></defs><g
     inkscape:label="Ebene 1"
     inkscape:groupmode="layer"
     id="layer1"><rect
       style="fill:#ffffff;stroke:none;stroke-width:0.396875;paint-order:stroke fill markers"
       id="rect5"
       width="50"
       height="50"
       x="1"
       y="1" /><g
       id="g54"
       inkscape:label="progress pride"
       clip-path="url(#clipPath1)"
       transform="matrix(0.58717436,0,0,-0.58717436,-32.634145,440.38556)"
       style="stroke-width:0.563255"
       mask="none"><g
         id="g41"
         transform="matrix(0.16138814,0,0,1,51.730684,0)"
         style="stroke-width:1.40207"
         inkscape:label="rainbow"><rect
           style="fill:#ff0000;stroke:none;stroke-width:1.22092;paint-order:stroke fill markers"
           id="rect13"
           width="465.6188"
           height="23.675779"
           x="65.346397"
           y="-748.73724"
           transform="scale(1,-1)"
           inkscape:label="red" /><rect
           style="fill:#ff7f2a;stroke:none;stroke-width:1.22092;paint-order:stroke fill markers"
           id="rect14"
           width="465.6188"
           height="9.4063339"
           x="65.346397"
           y="-725.06146"
           transform="scale(1,-1)"
           inkscape:label="orange" /><rect
           style="fill:#ffff00;stroke:none;stroke-width:1.22092;paint-order:stroke fill markers"
           id="rect15"
           width="465.6188"
           height="9.4063339"
           x="65.346397"
           y="-715.65515"
           transform="scale(1,-1)"
           inkscape:label="yellow" /><rect
           style="fill:#008000;stroke:none;stroke-width:1.22092;paint-order:stroke fill markers"
           id="rect16"
           width="465.6188"
           height="9.4063339"
           x="65.346397"
           y="-706.24878"
           transform="scale(1,-1)"
           inkscape:label="green" /><rect
           style="fill:#0000ff;stroke:none;stroke-width:1.22092;paint-order:stroke fill markers"
           id="rect17"
           width="465.6188"
           height="9.4063339"
           x="65.346397"
           y="-696.84247"
           transform="scale(1,-1)"
           inkscape:label="blue" /><rect
           style="fill:#800080;stroke:none;stroke-width:1.22092;paint-order:stroke fill markers"
           id="rect18"
           width="465.6188"
           height="24.483976"
           x="65.346397"
           y="-687.4361"
           transform="scale(1,-1)"
           inkscape:label="purple" /></g><g
         id="g53"
         inkscape:label="chevron"
         style="stroke-width:0.563255"><path
           style="fill:#000000;fill-opacity:1;stroke:none;stroke-width:0.450604px;stroke-linecap:butt;stroke-linejoin:miter;stroke-opacity:1"
           d="m 102.929,706.3763 -40.652983,-42.89354 0.0016,85.78512 z"
           id="path1"
           sodipodi:nodetypes="cccc"
           inkscape:label="black" /><path
           style="fill:#704120;fill-opacity:1;stroke:none;stroke-width:0.450604px;stroke-linecap:butt;stroke-linejoin:miter;stroke-opacity:1"
           d="m 100.27505,706.37623 -37.999033,-40.09331 0.0015,80.1848 z"
           id="path48"
           sodipodi:nodetypes="cccc"
           inkscape:label="brown" /><path
           style="fill:#81ffff;fill-opacity:1;stroke:none;stroke-width:0.450604px;stroke-linecap:butt;stroke-linejoin:miter;stroke-opacity:1"
           d="m 97.621245,706.37617 -35.345228,-37.29325 0.0014,74.5848 z"
           id="path49"
           sodipodi:nodetypes="cccc"
           inkscape:label="turquoise" /><path
           style="fill:#ff80ff;fill-opacity:1;stroke:none;stroke-width:0.450604px;stroke-linecap:butt;stroke-linejoin:miter;stroke-opacity:1"
           d="m 95.137235,706.37611 -32.861218,-34.49319 0.0013,68.9848 z"
           id="path51"
           sodipodi:nodetypes="cccc"
           inkscape:label="pink" /><path
           style="fill:#fffff2;fill-opacity:1;stroke:none;stroke-width:0.450604px;stroke-linecap:butt;stroke-linejoin:miter;stroke-opacity:1"
           d="m 92.313641,706.37605 -30.037624,-31.69313 0.0012,63.3848 z"
           id="path52"
           sodipodi:nodetypes="cccc"
           inkscape:label="off-white" /><path
           style="fill:#ffcc00;fill-opacity:1;stroke:none;stroke-width:0.450604px;stroke-linecap:butt;stroke-linejoin:miter;stroke-opacity:1"
           d="m 89.659839,706.37598 -27.383822,-28.89306 0.0011,57.7848 z"
           id="path53"
           sodipodi:nodetypes="cccc"
           inkscape:label="dark yellow" /><path
           style="fill:#800080;stroke-width:0.563255;paint-order:stroke fill markers"
           d="m 81.619141,-710.57617 c -2.31249,0 -4.201172,1.88868 -4.201172,4.20117 0,2.31249 1.888682,4.19922 4.201172,4.19922 2.312489,0 4.199218,-1.88673 4.199218,-4.19922 0,-2.31249 -1.886729,-4.20117 -4.199218,-4.20117 z m 0,1.20117 c 1.663961,0 3,1.33604 3,3 0,1.66396 -1.336039,3 -3,3 -1.663961,0 -3,-1.33604 -3,-3 0,-1.66396 1.336039,-3 3,-3 z"
           id="path80"
           transform="scale(1,-1)"
           inkscape:label="intersex circle" /></g></g></g></svg>
