<?xml version="1.0" encoding="UTF-8" standalone="no"?>
<svg
   width="147.401575pt"
   height="147.401575pt"
   viewBox="0 0 147.401575 147.401575"
   version="1.1"
   id="svg53"
   sodipodi:docname="logo_square_pride_flat.svg"
   inkscape:version="1.4 (e7c3feb100, 2024-10-09)"
   xmlns:inkscape="http://www.inkscape.org/namespaces/inkscape"
   xmlns:sodipodi="http://sodipodi.sourceforge.net/DTD/sodipodi-0.dtd"
   xmlns="http://www.w3.org/2000/svg"
   xmlns:svg="http://www.w3.org/2000/svg">
  <sodipodi:namedview
     id="namedview53"
     pagecolor="#505050"
     bordercolor="#eeeeee"
     borderopacity="1"
     inkscape:showpageshadow="0"
     inkscape:pageopacity="0"
     inkscape:pagecheckerboard="0"
     inkscape:deskcolor="#d1d1d1"
     inkscape:document-units="pt"
     inkscape:zoom="3.9244706"
     inkscape:cx="71.474608"
     inkscape:cy="119.25175"
     inkscape:window-width="1362"
     inkscape:window-height="721"
     inkscape:window-x="0"
     inkscape:window-y="22"
     inkscape:window-maximized="1"
     inkscape:current-layer="svg53" />
  <defs
     id="defs26" />
  <path
     fill-rule="nonzero"
     fill="rgb(100%, 100%, 100%)"
     fill-opacity="1"
     d="M 2.835938 2.835938 L 144.566406 2.835938 L 144.566406 144.566406 L 2.835938 144.566406 Z M 2.835938 2.835938 "
     id="path27" />
  <path
     id="path28"
     clip-path="none"
     d="M 108.35596 14.172363 C 106.60205 14.172363 105.18018 15.59375 105.18018 17.34375 C 105.18018 17.652344 105.23878 17.941895 105.3208 18.227051 C 104.49268 18.605958 103.58155 18.878906 102.93311 18.867188 L 31.905762 18.855469 C 31.550293 17.203125 30.394531 15.76123 28.6875 15.13623 C 26.050781 14.179199 23.140625 15.534668 22.183594 18.171387 C 21.222656 20.808106 22.582031 23.71875 25.21875 24.679688 C 25.496094 24.78125 25.78125 24.84375 26.0625 24.890625 L 26.0625 41.523926 L 27.839355 41.523926 L 27.839355 24.883301 C 29.558105 24.574708 31.078125 23.401856 31.722656 21.640137 C 31.839844 21.315918 31.922364 20.988281 31.973145 20.660156 L 102.93311 20.660156 C 104.03077 20.636716 105.22217 20.280761 106.29639 19.741699 C 106.85107 20.218261 107.5669 20.519531 108.35596 20.519531 C 110.10987 20.519531 111.52734 19.097656 111.52734 17.34375 C 111.52734 15.59375 110.10987 14.172363 108.35596 14.172363 z M 26.816895 16.614258 C 27.23346 16.592651 27.661133 16.652344 28.078125 16.804688 C 29.75 17.414062 30.609375 19.253906 30 20.917969 C 29.394531 22.59375 27.547364 23.457519 25.879395 22.844238 C 24.215333 22.238769 23.35498 20.390626 23.960449 18.726563 C 24.41748 17.478516 25.5672 16.679077 26.816895 16.614258 z M 39.796875 25.867676 C 36.59375 25.867676 34.000488 28.464845 34.000488 31.664063 L 34.000488 41.523926 L 47.847656 41.523926 L 44.20752 37.683105 C 43.797364 37.249511 43.816406 36.566894 44.25 36.156738 C 44.679688 35.742676 45.363769 35.757326 45.777832 36.194824 L 50.828613 41.523926 L 106.79443 41.523926 L 111.84375 36.194824 C 112.25781 35.757324 112.94092 35.742674 113.37451 36.156738 C 113.8081 36.566894 113.82809 37.249511 113.41406 37.683105 L 109.77393 41.523926 L 118.40771 41.523926 L 119.38623 40.5 C 118.96435 39.707031 118.85156 38.754394 119.17969 37.844238 C 119.80469 36.137207 121.68701 35.250488 123.39404 35.875488 C 123.42134 35.883288 123.44535 35.898925 123.46875 35.910645 C 125.12109 36.559083 125.96923 38.406739 125.35986 40.08252 C 125.1476 40.663135 124.79328 41.150819 124.35645 41.523926 L 126.75293 41.523926 C 126.91557 41.250009 127.06358 40.963479 127.17627 40.652344 C 128.15283 37.960938 126.76904 34.984863 124.07373 34.000488 C 123.87451 33.930178 123.67188 33.89502 123.46875 33.848145 L 123.46875 31.664063 C 123.46875 28.464845 120.87548 25.867676 117.67236 25.867676 L 39.796875 25.867676 z "
     style="fill:#ff0000;fill-opacity:1" />
  <path
     id="path29"
     clip-path="none"
     d="M 26.0625 41.523926 L 26.0625 57.180176 L 27.839355 57.180176 L 27.839355 41.523926 L 26.0625 41.523926 z M 34.000488 41.523926 L 34.000488 57.180176 L 62.687988 57.180176 L 47.847656 41.523926 L 34.000488 41.523926 z M 50.828613 41.523926 L 65.66748 57.180176 L 91.957031 57.180176 L 106.79443 41.523926 L 50.828613 41.523926 z M 109.77393 41.523926 L 94.935059 57.180176 L 103.43994 57.180176 L 118.40771 41.523926 L 109.77393 41.523926 z M 124.35645 41.523926 C 123.7 42.084605 122.85064 42.379174 121.96875 42.27832 C 121.87105 42.27052 121.38671 42.152832 121.26563 42.109863 C 121.07422 42.039553 120.89893 41.949219 120.73096 41.847656 L 106.06787 57.180176 L 123.46875 57.180176 L 123.46875 43.921875 C 124.8213 43.608518 126.01918 42.759723 126.75293 41.523926 L 124.35645 41.523926 z M 19.617188 52.445801 C 17.761719 52.445801 16.258301 53.949219 16.258301 55.804688 C 16.258301 56.297622 16.374807 56.759707 16.567383 57.180176 L 22.662598 57.180176 C 22.855533 56.759612 22.973145 56.297709 22.973145 55.804688 C 22.973145 53.949219 21.472656 52.445801 19.617188 52.445801 z "
     style="fill:#ff7f2a;fill-opacity:1" />
  <path
     id="path31"
     clip-path="none"
     d="M 16.567383 57.180176 C 16.976076 58.072512 17.75835 58.759173 18.722168 59.027344 L 18.722168 72.836426 L 20.496094 72.836426 L 20.496094 59.027344 C 21.46364 58.764192 22.251721 58.075814 22.662598 57.180176 L 16.567383 57.180176 z M 26.0625 57.180176 L 26.0625 72.836426 L 27.839355 72.836426 L 27.839355 57.180176 L 26.0625 57.180176 z M 34.000488 57.180176 L 34.000488 72.836426 L 64.49707 72.836426 C 64.331626 71.885622 64.616694 70.89375 65.351074 70.129395 C 66.565918 68.855958 68.586426 68.812504 69.859863 70.03125 C 70.64543 70.783081 70.95857 71.839176 70.800293 72.836426 L 77.121094 72.836426 L 77.324707 72.621094 L 62.687988 57.180176 L 34.000488 57.180176 z M 65.66748 57.180176 L 78.812988 71.050781 L 91.957031 57.180176 L 65.66748 57.180176 z M 94.935059 57.180176 L 80.30127 72.621094 L 80.504883 72.836426 L 86.904785 72.836426 C 86.745982 71.865011 87.019107 70.834308 87.75 70.066406 C 88.812503 68.953125 90.418455 68.652344 91.691895 69.410156 L 94.612793 66.414551 L 103.43994 57.180176 L 94.935059 57.180176 z M 106.06787 57.180176 L 95.925293 67.785645 L 92.995605 70.848633 C 93.280762 71.434571 93.386236 72.086426 93.300293 72.719238 C 93.295344 72.759539 93.273005 72.796317 93.266602 72.836426 L 123.46875 72.836426 L 123.46875 57.180176 L 106.06787 57.180176 z "
     style="fill:#ffff00;fill-opacity:1" />
  <path
     id="path33"
     clip-path="none"
     d="M 18.722168 72.836426 L 18.722168 88.492676 L 20.496094 88.492676 L 20.496094 72.836426 L 18.722168 72.836426 z M 26.0625 72.836426 L 26.0625 88.492676 L 27.839355 88.492676 L 27.839355 72.836426 L 26.0625 72.836426 z M 34.000488 72.836426 L 34.000488 88.492676 L 50.607422 88.492676 L 61.858887 76.727051 L 64.765137 73.683105 C 64.629729 73.410472 64.54723 73.124692 64.49707 72.836426 L 34.000488 72.836426 z M 70.800293 72.836426 C 70.701996 73.45576 70.42346 74.052201 69.956543 74.538574 C 68.917481 75.62842 67.370606 75.878419 66.124512 75.147949 L 63.269531 78.13623 L 53.364258 88.492676 L 62.282227 88.492676 L 77.121094 72.836426 L 70.800293 72.836426 z M 80.504883 72.836426 L 95.342285 88.492676 L 123.46875 88.492676 L 123.46875 72.836426 L 93.266602 72.836426 C 93.166865 73.461102 92.907336 74.06283 92.4375 74.554688 C 91.19922 75.847655 89.147944 75.895014 87.851074 74.652832 C 87.3221 74.147656 87.014177 73.50559 86.904785 72.836426 L 80.504883 72.836426 z M 78.812988 74.195801 L 65.261719 88.492676 L 92.364258 88.492676 L 78.812988 74.195801 z "
     style="fill:#008000;fill-opacity:1" />
  <path
     id="path35"
     clip-path="none"
     d="M 18.722168 88.492676 L 18.722168 104.14893 L 20.496094 104.14893 L 20.496094 88.492676 L 18.722168 88.492676 z M 26.0625 88.492676 L 26.0625 104.14893 L 27.839355 104.14893 L 27.839355 88.492676 L 26.0625 88.492676 z M 34.000488 88.492676 L 34.000488 100.39014 C 32.617676 100.89795 31.453613 101.96826 30.906738 103.46045 C 30.8243 103.68798 30.781812 103.91876 30.732422 104.14893 L 32.696777 104.14893 C 32.709339 104.11009 32.711974 104.0704 32.726074 104.03174 C 32.976074 103.34424 33.437012 102.80078 34.003418 102.42188 C 34.198731 102.29297 34.410156 102.18701 34.628906 102.10107 C 34.664066 102.08937 34.699216 102.07772 34.734375 102.06592 C 34.917969 101.99952 35.108886 101.95361 35.304199 101.92236 C 35.358889 101.91066 35.418458 101.90283 35.477051 101.89893 C 35.656739 101.87553 35.839356 101.87941 36.019043 101.88721 C 36.085453 101.89121 36.152832 101.89123 36.215332 101.89893 C 36.457519 101.92623 36.636231 101.98093 36.874512 102.06299 C 37.042481 102.12549 37.223144 102.24218 37.375488 102.32813 L 50.607422 88.492676 L 34.000488 88.492676 z M 53.364258 88.492676 L 38.765625 103.75781 C 38.825174 103.88542 38.869991 104.01702 38.915039 104.14893 L 47.441895 104.14893 L 62.282227 88.492676 L 53.364258 88.492676 z M 65.261719 88.492676 L 50.422852 104.14893 L 107.20313 104.14893 L 92.364258 88.492676 L 65.261719 88.492676 z M 95.342285 88.492676 L 110.17969 104.14893 L 123.46875 104.14893 L 123.46875 88.492676 L 95.342285 88.492676 z "
     style="fill:#0000ff;fill-opacity:1" />
  <path
     id="path37"
     clip-path="none"
     d="M 18.722168 104.14893 L 18.722168 116.81982 C 18.749508 118.73779 19.628418 120.78906 20.972168 122.63672 C 21.21045 123.00391 21.449707 123.37109 21.684082 123.73828 C 22.754394 125.375 23.640625 126.5083 24.714844 128.13721 C 25.816406 129.80127 26.917481 131.48096 28.765137 132.46143 C 30.144043 133.1919 31.972167 133.21142 33.558105 133.22314 L 111.60205 133.22607 C 111.60205 133.22607 113.05078 133.28467 113.05078 132.32373 C 113.05078 131.36278 111.58594 131.44482 111.58594 131.44482 L 33.531738 131.53564 C 32.562988 131.57864 30.35498 131.57768 29.151855 130.58936 C 27.952636 129.60108 27.800781 129.35107 27.292969 128.72607 C 26.785156 128.10107 22.132324 121.29639 22.132324 121.29639 C 21.144043 119.60107 20.46875 118.04248 20.496094 116.81982 L 20.496094 104.14893 L 18.722168 104.14893 z M 26.0625 104.14893 L 26.0625 110.33643 C 26.08984 112.26221 26.969239 114.30859 28.316895 116.15625 C 28.55127 116.52344 28.789062 116.88623 29.027344 117.25342 C 30.09375 118.89404 30.97998 120.02783 32.058105 121.65674 C 33.159667 123.3208 34.257812 124.99609 36.105469 125.97656 C 37.484375 126.70703 39.316406 126.73096 40.898438 126.74268 L 124.5542 126.74561 C 124.93701 128.17922 126.23389 129.23877 127.78857 129.23877 C 129.64404 129.23877 131.14453 127.73877 131.14453 125.88721 C 131.14453 124.03174 129.64404 122.52393 127.78857 122.52393 C 126.25342 122.52393 124.97315 123.55859 124.57471 124.96875 L 40.870605 125.05518 C 39.901855 125.09818 37.347168 125.0347 36.030762 123.81592 C 35.069824 122.92529 29.472656 114.81592 29.472656 114.81592 C 28.484375 113.1206 27.808105 111.56299 27.839355 110.33643 L 27.839355 104.14893 L 26.0625 104.14893 z M 30.732422 104.14893 C 30.196738 106.64532 31.544425 109.21607 34.012207 110.11377 C 34.578613 110.3208 35.151856 110.39844 35.726074 110.40234 C 36.546387 111.53516 41.445312 118.28906 42 118.85156 C 42.609375 119.46484 43.792969 119.79346 45.1875 119.80518 L 117.67236 119.80518 C 120.87548 119.80518 123.46875 117.20361 123.46875 114.00439 L 123.46875 104.14893 L 110.17969 104.14893 L 113.41406 107.56201 C 113.82813 107.9956 113.80814 108.67969 113.37451 109.08984 C 113.16356 109.28906 112.89892 109.39014 112.6333 109.39014 C 112.34424 109.39014 112.05908 109.27685 111.84814 109.05029 L 107.20313 104.14893 L 50.422852 104.14893 L 45.777832 109.05029 C 45.566894 109.27685 45.277832 109.39014 44.992676 109.39014 C 44.723144 109.39014 44.457031 109.28906 44.25 109.08984 C 43.8125 108.67969 43.797365 107.9956 44.20752 107.56201 L 47.441895 104.14893 L 38.915039 104.14893 C 38.994103 104.38044 39.057147 104.61741 39.082031 104.86377 C 39.082031 104.88327 39.085455 104.89847 39.089355 104.91797 C 39.104985 105.10547 39.094237 105.29297 39.074707 105.48047 C 39.070807 105.52347 39.073718 105.56296 39.065918 105.60205 C 39.038578 105.82862 38.983887 106.05029 38.901855 106.27295 C 38.280761 107.97998 36.39502 108.86279 34.691895 108.2417 C 33.023618 107.6347 32.156008 105.82081 32.696777 104.14893 L 30.732422 104.14893 z "
     style="fill:#800080;fill-opacity:1" />
  <path
     id="path39"
     clip-path="none"
     d="M 24.60498 15.424805 C 23.523224 15.990905 22.633468 16.931937 22.183594 18.171387 C 21.222656 20.808106 22.582031 23.71875 25.21875 24.679688 C 25.496094 24.78125 25.78125 24.84375 26.0625 24.890625 L 26.0625 110.33643 C 26.08984 112.26221 26.969239 114.30859 28.316895 116.15625 C 28.55127 116.52344 28.789062 116.88623 29.027344 117.25342 C 30.09375 118.89404 30.97998 120.02783 32.058105 121.65674 C 32.09655 121.71481 32.136826 121.77152 32.175293 121.82959 L 33.467285 120.46729 C 31.599522 117.88192 29.472656 114.81592 29.472656 114.81592 C 28.484375 113.1206 27.808105 111.56299 27.839355 110.33643 L 27.839355 24.883301 C 29.260651 24.628114 30.53848 23.775368 31.305176 22.494141 L 29.937012 21.049805 C 29.282032 22.634062 27.500728 23.440372 25.879395 22.844238 C 24.215333 22.238769 23.35498 20.390626 23.960449 18.726563 C 24.303594 17.789512 25.042924 17.119402 25.916016 16.809082 L 24.60498 15.424805 z M 35.929688 27.373535 C 34.752951 28.434869 34.000488 29.955965 34.000488 31.664063 L 34.000488 100.39014 C 32.617676 100.89795 31.453613 101.96826 30.906738 103.46045 C 29.930176 106.15576 31.316894 109.1333 34.012207 110.11377 C 34.578613 110.3208 35.151856 110.39844 35.726074 110.40234 C 36.127153 110.95622 37.525093 112.88197 38.891602 114.74268 L 44.25 109.08984 C 43.8125 108.67969 43.797365 107.9956 44.20752 107.56201 L 77.324707 72.621094 L 44.20752 37.683105 C 43.797364 37.249511 43.816406 36.566894 44.25 36.156738 C 44.250816 36.155952 44.252111 36.156057 44.25293 36.155273 L 35.929688 27.373535 z M 19.617188 52.445801 C 17.761719 52.445801 16.258301 53.949219 16.258301 55.804688 C 16.258301 57.34375 17.3042 58.632812 18.722168 59.027344 L 18.722168 116.81982 C 18.749508 118.73779 19.628418 120.78906 20.972168 122.63672 C 21.21045 123.00391 21.449707 123.37109 21.684082 123.73828 C 22.754394 125.375 23.640625 126.5083 24.714844 128.13721 C 24.917984 128.44408 25.125189 128.74782 25.333008 129.05127 L 26.589844 127.72412 C 25.351855 125.99177 22.132324 121.29639 22.132324 121.29639 C 21.144043 119.60107 20.46875 118.04248 20.496094 116.81982 L 20.496094 59.027344 C 21.917969 58.640625 22.973145 57.347656 22.973145 55.804688 C 22.973145 53.949219 21.472656 52.445801 19.617188 52.445801 z M 67.583496 69.14502 C 68.399414 69.127441 69.223145 69.421877 69.859863 70.03125 C 71.1333 71.25 71.175289 73.269043 69.956543 74.538574 C 68.917481 75.62842 67.370606 75.878419 66.124512 75.147949 L 63.269531 78.13623 L 38.765625 103.75781 C 38.929688 104.10938 39.042969 104.47705 39.082031 104.86377 C 39.082031 104.88327 39.085455 104.89847 39.089355 104.91797 C 39.104985 105.10547 39.094237 105.29297 39.074707 105.48047 C 39.070807 105.52347 39.073718 105.56296 39.065918 105.60205 C 39.038578 105.82862 38.983887 106.05029 38.901855 106.27295 C 38.280761 107.97998 36.39502 108.86279 34.691895 108.2417 C 32.984864 107.6206 32.104981 105.73487 32.726074 104.03174 C 32.976074 103.34424 33.437012 102.80078 34.003418 102.42188 C 34.198731 102.29297 34.410156 102.18701 34.628906 102.10107 C 34.664066 102.08937 34.699216 102.07772 34.734375 102.06592 C 34.917969 101.99952 35.108886 101.95361 35.304199 101.92236 C 35.358889 101.91066 35.418458 101.90283 35.477051 101.89893 C 35.656739 101.87553 35.839356 101.87941 36.019043 101.88721 C 36.085453 101.89121 36.152832 101.89123 36.215332 101.89893 C 36.457519 101.92623 36.636231 101.98093 36.874512 102.06299 C 37.042481 102.12549 37.223144 102.24218 37.375488 102.32813 L 61.858887 76.727051 L 64.765137 73.683105 C 64.183106 72.51123 64.394043 71.125489 65.351074 70.129395 C 65.958496 69.492676 66.767578 69.162598 67.583496 69.14502 z "
     style="fill:#000000;fill-opacity:1" />
  <path
     id="path41"
     clip-path="none"
     d="M 22.387207 17.749512 C 22.320428 17.891202 22.238109 18.021191 22.183594 18.171387 C 21.222656 20.808106 22.582031 23.71875 25.21875 24.679688 C 25.496094 24.78125 25.78125 24.84375 26.0625 24.890625 L 26.0625 110.33643 C 26.08984 112.26221 26.969239 114.30859 28.316895 116.15625 C 28.55127 116.52344 28.789062 116.88623 29.027344 117.25342 C 29.481434 117.95202 29.900291 118.53646 30.317871 119.12842 L 31.568848 117.80859 C 30.599018 116.42682 29.472656 114.81592 29.472656 114.81592 C 28.484375 113.1206 27.808105 111.56299 27.839355 110.33643 L 27.839355 24.883301 C 28.188458 24.820621 28.52163 24.698513 28.848633 24.566895 L 27.367676 23.003906 C 26.879165 23.064009 26.373314 23.025843 25.879395 22.844238 C 24.392861 22.303363 23.555838 20.771192 23.824219 19.26416 L 22.387207 17.749512 z M 34.204102 30.216797 C 34.083725 30.682034 34.000488 31.161378 34.000488 31.664063 L 34.000488 100.39014 C 32.617676 100.89795 31.453613 101.96826 30.906738 103.46045 C 29.930176 106.15576 31.316894 109.1333 34.012207 110.11377 C 34.578613 110.3208 35.151856 110.39844 35.726074 110.40234 C 35.883793 110.62015 36.571824 111.55946 36.971191 112.10889 L 74.39502 72.621094 L 34.204102 30.216797 z M 19.617188 52.445801 C 17.761719 52.445801 16.258301 53.949219 16.258301 55.804688 C 16.258301 57.34375 17.3042 58.632812 18.722168 59.027344 L 18.722168 116.81982 C 18.749508 118.73779 19.628418 120.78906 20.972168 122.63672 C 21.21045 123.00391 21.449707 123.37109 21.684082 123.73828 C 22.318194 124.70797 22.897581 125.52035 23.47998 126.34424 L 24.710449 125.04492 C 23.396913 123.14162 22.132324 121.29639 22.132324 121.29639 C 21.144043 119.60107 20.46875 118.04248 20.496094 116.81982 L 20.496094 59.027344 C 21.917969 58.640625 22.973145 57.347656 22.973145 55.804688 C 22.973145 53.949219 21.472656 52.445801 19.617188 52.445801 z M 67.583496 69.14502 C 68.399414 69.127441 69.223145 69.421877 69.859863 70.03125 C 71.1333 71.25 71.175289 73.269043 69.956543 74.538574 C 68.917481 75.62842 67.370606 75.878419 66.124512 75.147949 L 63.269531 78.13623 L 38.765625 103.75781 C 38.929688 104.10938 39.042969 104.47705 39.082031 104.86377 C 39.082031 104.88327 39.085455 104.89847 39.089355 104.91797 C 39.104985 105.10547 39.094237 105.29297 39.074707 105.48047 C 39.070807 105.52347 39.073718 105.56296 39.065918 105.60205 C 39.038578 105.82862 38.983887 106.05029 38.901855 106.27295 C 38.280761 107.97998 36.39502 108.86279 34.691895 108.2417 C 32.984864 107.6206 32.104981 105.73487 32.726074 104.03174 C 32.976074 103.34424 33.437012 102.80078 34.003418 102.42188 C 34.198731 102.29297 34.410156 102.18701 34.628906 102.10107 C 34.664066 102.08937 34.699216 102.07772 34.734375 102.06592 C 34.917969 101.99952 35.108886 101.95361 35.304199 101.92236 C 35.358889 101.91066 35.418458 101.90283 35.477051 101.89893 C 35.656739 101.87553 35.839356 101.87941 36.019043 101.88721 C 36.085453 101.89121 36.152832 101.89123 36.215332 101.89893 C 36.457519 101.92623 36.636231 101.98093 36.874512 102.06299 C 37.042481 102.12549 37.223144 102.24218 37.375488 102.32813 L 61.858887 76.727051 L 64.765137 73.683105 C 64.183106 72.51123 64.394043 71.125489 65.351074 70.129395 C 65.958496 69.492676 66.767578 69.162598 67.583496 69.14502 z "
     style="fill:#704120;fill-opacity:1" />
  <path
     id="path43"
     clip-path="none"
     d="M 22.858887 22.908691 C 23.084873 23.217458 23.356968 23.491634 23.651367 23.745117 L 22.858887 22.908691 z M 26.0625 26.289551 L 26.0625 110.33643 C 26.08984 112.26221 26.969239 114.30859 28.316895 116.15625 C 28.370663 116.24049 28.42536 116.32428 28.479492 116.4082 L 29.692383 115.12939 C 29.677079 115.10725 29.472656 114.81592 29.472656 114.81592 C 28.484375 113.1206 27.808105 111.56299 27.839355 110.33643 L 27.839355 28.163086 L 26.0625 26.289551 z M 34.000488 34.664063 L 34.000488 100.39014 C 32.617676 100.89795 31.453613 101.96826 30.906738 103.46045 C 29.930176 106.15576 31.316894 109.1333 34.012207 110.11377 C 34.127792 110.15602 34.24467 110.17115 34.36084 110.20313 L 36.043945 108.42773 C 35.597723 108.45969 35.139033 108.40476 34.691895 108.2417 C 32.984864 107.6206 32.104981 105.73487 32.726074 104.03174 C 32.976074 103.34424 33.437012 102.80078 34.003418 102.42188 C 34.198731 102.29297 34.410156 102.18701 34.628906 102.10107 C 34.664066 102.08937 34.699216 102.07772 34.734375 102.06592 C 34.917969 101.99952 35.108886 101.95361 35.304199 101.92236 C 35.358889 101.91066 35.418458 101.90283 35.477051 101.89893 C 35.656739 101.87553 35.839356 101.87941 36.019043 101.88721 C 36.085453 101.89121 36.152832 101.89123 36.215332 101.89893 C 36.457519 101.92623 36.636231 101.98093 36.874512 102.06299 C 37.042481 102.12549 37.223144 102.24218 37.375488 102.32813 L 61.858887 76.727051 L 64.765137 73.683105 C 64.183106 72.51123 64.394043 71.125489 65.351074 70.129395 C 65.761849 69.698807 66.267908 69.420477 66.802734 69.272461 L 34.000488 34.664063 z M 19.617188 52.445801 C 17.761719 52.445801 16.258301 53.949219 16.258301 55.804688 C 16.258301 57.34375 17.3042 58.632812 18.722168 59.027344 L 18.722168 116.81982 C 18.749508 118.73779 19.628418 120.78906 20.972168 122.63672 C 21.189855 122.97217 21.407851 123.30761 21.622559 123.64307 L 22.853027 122.34521 C 22.671835 122.0806 22.132324 121.29639 22.132324 121.29639 C 21.144043 119.60107 20.46875 118.04248 20.496094 116.81982 L 20.496094 59.027344 C 21.917969 58.640625 22.973145 57.347656 22.973145 55.804688 C 22.973145 53.949219 21.472656 52.445801 19.617188 52.445801 z M 66.124512 75.147949 L 63.269531 78.13623 L 38.765625 103.75781 C 38.929688 104.10938 39.042969 104.47705 39.082031 104.86377 C 39.082031 104.88327 39.085455 104.89847 39.089355 104.91797 C 39.097781 105.01904 39.086442 105.12012 39.082031 105.22119 L 67.224609 75.525879 C 66.846438 75.471962 66.473287 75.352404 66.124512 75.147949 z "
     style="fill:#81ffff;fill-opacity:1" />
  <path
     id="path45"
     clip-path="none"
     d="M 26.0625 30.868652 L 26.0625 110.33643 C 26.077545 111.39619 26.368923 112.48961 26.835938 113.56934 L 28.195313 112.14111 C 27.96863 111.48902 27.825597 110.87646 27.839355 110.33643 L 27.839355 32.733398 L 26.0625 30.868652 z M 34.000488 39.199219 L 34.000488 100.39014 C 32.617676 100.89795 31.453613 101.96826 30.906738 103.46045 C 30.271845 105.21275 30.648127 107.07519 31.721191 108.43945 L 33.101074 106.99219 C 32.530888 106.14914 32.351229 105.05962 32.726074 104.03174 C 32.976074 103.34424 33.437012 102.80078 34.003418 102.42188 C 34.198731 102.29297 34.410156 102.18701 34.628906 102.10107 C 34.664066 102.08937 34.699216 102.07772 34.734375 102.06592 C 34.917969 101.99952 35.108886 101.95361 35.304199 101.92236 C 35.358889 101.91066 35.418458 101.90283 35.477051 101.89893 C 35.656739 101.87553 35.839356 101.87941 36.019043 101.88721 C 36.085453 101.89121 36.152832 101.89123 36.215332 101.89893 C 36.457519 101.92623 36.636231 101.98093 36.874512 102.06299 C 37.042481 102.12549 37.223144 102.24218 37.375488 102.32813 L 61.858887 76.727051 L 64.765137 73.683105 C 64.396066 72.94001 64.381023 72.118427 64.637695 71.356934 L 34.000488 39.199219 z M 19.617188 52.445801 C 17.761719 52.445801 16.258301 53.949219 16.258301 55.804688 C 16.258301 57.34375 17.3042 58.632812 18.722168 59.027344 L 18.722168 116.81982 C 18.74101 118.14167 19.185513 119.52475 19.886719 120.86279 L 21.202148 119.48291 C 20.761062 118.49887 20.478913 117.58804 20.496094 116.81982 L 20.496094 59.027344 C 21.917969 58.640625 22.973145 57.347656 22.973145 55.804688 C 22.973145 53.949219 21.472656 52.445801 19.617188 52.445801 z "
     style="fill:#ff80ff;fill-opacity:1" />
  <path
     id="path47"
     clip-path="none"
     d="M 26.0625 35.608887 L 26.0625 109.6377 L 27.839355 107.7627 L 27.839355 37.483887 L 26.0625 35.608887 z M 34.000488 43.983398 L 34.000488 100.39014 C 32.617676 100.89795 31.453613 101.96826 30.906738 103.46045 C 30.744503 103.90822 30.669436 104.36258 30.632813 104.81543 L 61.144043 72.621094 L 34.000488 43.983398 z M 19.617188 52.445801 C 17.761719 52.445801 16.258301 53.949219 16.258301 55.804688 C 16.258301 57.34375 17.3042 58.632812 18.722168 59.027344 L 18.722168 116.81982 C 18.724515 116.98448 18.767572 117.1544 18.782227 117.3208 L 20.496094 115.51172 L 20.496094 59.027344 C 21.917969 58.640625 22.973145 57.347656 22.973145 55.804688 C 22.973145 53.949219 21.472656 52.445801 19.617188 52.445801 z "
     style="fill:#fffff2;fill-opacity:1" />
  <path
     id="path49"
     clip-path="none"
     d="M 26.0625 40.27002 L 26.0625 104.97803 L 27.839355 103.10303 L 27.839355 42.143555 L 26.0625 40.27002 z M 34.000488 48.644531 L 34.000488 96.602051 L 56.726074 72.621094 L 34.000488 48.644531 z M 19.617188 52.445801 C 17.761719 52.445801 16.258301 53.949219 16.258301 55.804688 C 16.258301 57.34375 17.3042 58.632812 18.722168 59.027344 L 18.722168 112.72412 L 20.496094 110.85205 L 20.496094 59.027344 C 21.917969 58.640625 22.973145 57.347656 22.973145 55.804688 C 22.973145 53.949219 21.472656 52.445801 19.617188 52.445801 z "
     style="fill:#ffcc00" />
  <path
     fill-rule="nonzero"
     fill="#800080"
     fill-opacity="1"
     d="m 43.34375,65.632812 c -3.847656,0 -6.992188,3.144532 -6.992188,6.992188 0,3.847656 3.144532,6.988281 6.992188,6.988281 3.847656,0 6.988281,-3.140625 6.988281,-6.988281 0,-3.847656 -3.140625,-6.992188 -6.988281,-6.992188 z m 0,2 c 2.769531,0 4.992188,2.222657 4.992188,4.992188 0,2.769531 -2.222657,4.992188 -4.992188,4.992188 -2.769531,0 -4.992188,-2.222657 -4.992188,-4.992188 0,-2.769531 2.222657,-4.992188 4.992188,-4.992188 z m 0,0"
     id="path51"
     clip-path="none" />
</svg>
